<svg width="1558px" height="816px" viewBox="0 0 1558 816" version="1.1" xmlns="http://www.w3.org/2000/svg" xmlns:xlink="http://www.w3.org/1999/xlink">
    <!-- Generator: Sketch 43.1 (39012) - http://www.bohemiancoding.com/sketch -->
    <desc>Created with Sketch.</desc>
    <defs></defs>
    <g id="Page-1" stroke="none" stroke-width="1" fill="none" fill-rule="evenodd">
        <g id="logo" transform="translate(8.000000, 8.000000)">
            <circle id="Oval" stroke="black" stroke-width="16" cx="400" cy="400" r="400"></circle>
            <g id="sports-car" transform="translate(400.000000, 400.000000) scale(-1, 1) translate(-400.000000, -400.000000) translate(150.000000, 220.000000)" fill-rule="nonzero" fill="black">
                <path d="M496.566208,111.620432 C494.123753,108.593951 490.479251,106.827422 486.655721,106.827422 L438.049578,106.827422 C426.054691,74.6921676 410.428091,43.206373 392.665941,31.3212649 C331.220921,-9.73756216 168.241362,-9.73756216 106.796342,31.3212649 C89.0214039,43.2193622 73.4587423,74.7441243 61.3999173,106.827422 L12.7937736,106.827422 C8.93188055,106.827422 5.30016658,108.593951 2.8832865,111.620432 C0.453618698,114.633924 -0.518248422,118.621605 0.274590545,122.453416 L7.47407987,157.887924 C8.7017015,163.927897 13.9446689,168.240308 19.9932629,168.240308 L34.3922416,168.240308 C20.4919842,184.528751 13.752853,205.038681 13.6633389,225.5616 C13.5738248,250.916497 23.0495293,273.829427 40.376897,290.039935 C40.5687129,290.208795 40.7605288,290.325697 40.9395569,290.494557 L40.9395569,340.074292 C40.9395569,350.816351 49.5329083,359.558076 60.1211448,359.558076 L104.95491,359.558076 C115.543146,359.558076 124.136498,350.816351 124.136498,340.074292 L124.136498,320.148876 L375.30021,320.148876 L375.30021,340.074292 C375.30021,350.816351 383.893561,359.558076 394.481798,359.558076 L439.315562,359.558076 C449.878223,359.558076 458.49715,350.816351 458.49715,340.074292 L458.49715,291.468746 C476.885899,274.361984 485.671066,250.825573 485.786156,227.32813 C485.862882,206.103795 478.816846,184.840492 464.098174,168.21433 L479.456232,168.21433 C485.530401,168.21433 490.773369,163.901919 491.975415,157.848957 L499.187692,122.427438 C499.92938,118.621605 498.995876,114.659903 496.566208,111.620432 Z M127.857726,63.8591838 C176.834713,31.1134378 322.601994,31.1134378 371.553406,63.8591838 C381.067474,70.1979081 393.305327,95.8255784 404.520162,127.207459 L94.9165453,127.207459 C106.105805,95.8385676 118.343658,70.2238865 127.857726,63.8591838 Z M70.49199,230.445535 C70.49199,209.273157 87.3973628,192.127427 108.228567,192.127427 C129.085347,192.127427 145.965145,209.273157 145.965145,230.445535 C145.965145,251.617914 129.085347,268.776632 108.228567,268.776632 C87.3973628,268.776632 70.49199,251.617914 70.49199,230.445535 Z M391.706861,268.776632 C370.875657,268.776632 353.970284,251.617914 353.970284,230.445535 C353.970284,209.273157 370.875657,192.127427 391.706861,192.127427 C412.563641,192.127427 429.443438,209.273157 429.443438,230.445535 C429.443438,251.617914 412.538066,268.776632 391.706861,268.776632 Z" id="Shape"></path>
            </g>
        </g>
        <!-- <text id="skoop" font-family="Catamaran-Medium, Catamaran" font-size="250" font-weight="400" fill="#05386B">
            <tspan x="933" y="469">skoop</tspan>
        </text> -->
    </g>
</svg>
